<mxfile host="app.diagrams.net" agent="Mozilla/5.0 (Windows NT 10.0; Win64; x64) AppleWebKit/537.36 (KHTML, like Gecko) Chrome/139.0.0.0 Safari/537.36" version="28.2.5" pages="3">
  <diagram name="Quản lý Giỏ hàng" id="OvQZ5yTg00wLwAcyNbxM">
    <mxGraphModel grid="1" page="1" gridSize="10" guides="1" tooltips="1" connect="1" arrows="1" fold="1" pageScale="1" pageWidth="827" pageHeight="1169" math="0" shadow="0">
      <root>
        <mxCell id="0" />
        <mxCell id="1" parent="0" />
        <mxCell id="0qtqY2iSxDAGD9Ec6BDt-4" style="edgeStyle=orthogonalEdgeStyle;rounded=0;orthogonalLoop=1;jettySize=auto;html=1;" edge="1" parent="1" source="0qtqY2iSxDAGD9Ec6BDt-1" target="0qtqY2iSxDAGD9Ec6BDt-2">
          <mxGeometry relative="1" as="geometry" />
        </mxCell>
        <mxCell id="0qtqY2iSxDAGD9Ec6BDt-15" value="Text" style="edgeLabel;html=1;align=center;verticalAlign=middle;resizable=0;points=[];" vertex="1" connectable="0" parent="0qtqY2iSxDAGD9Ec6BDt-4">
          <mxGeometry x="0.4187" y="3" relative="1" as="geometry">
            <mxPoint as="offset" />
          </mxGeometry>
        </mxCell>
        <mxCell id="0qtqY2iSxDAGD9Ec6BDt-1" value="User" style="shape=umlActor;verticalLabelPosition=bottom;verticalAlign=top;html=1;outlineConnect=0;" vertex="1" parent="1">
          <mxGeometry x="260" y="270" width="30" height="60" as="geometry" />
        </mxCell>
        <mxCell id="0qtqY2iSxDAGD9Ec6BDt-5" style="edgeStyle=orthogonalEdgeStyle;rounded=0;orthogonalLoop=1;jettySize=auto;html=1;" edge="1" parent="1" source="0qtqY2iSxDAGD9Ec6BDt-2" target="0qtqY2iSxDAGD9Ec6BDt-2">
          <mxGeometry relative="1" as="geometry">
            <mxPoint x="600" y="110" as="targetPoint" />
            <Array as="points">
              <mxPoint x="570" y="110" />
              <mxPoint x="480" y="110" />
            </Array>
          </mxGeometry>
        </mxCell>
        <mxCell id="0qtqY2iSxDAGD9Ec6BDt-6" value="&lt;span style=&quot;font-family: berkeleyMono, ui-monospace, SFMono-Regular, monospace; font-size: 14px; letter-spacing: 0.16px; text-align: right; white-space: pre-wrap;&quot;&gt;1.1: CalAmtCanBorrow(id = id)&lt;/span&gt;" style="edgeLabel;html=1;align=center;verticalAlign=middle;resizable=0;points=[];labelBackgroundColor=none;fontColor=default;" vertex="1" connectable="0" parent="0qtqY2iSxDAGD9Ec6BDt-5">
          <mxGeometry x="-0.3091" relative="1" as="geometry">
            <mxPoint x="20" y="11" as="offset" />
          </mxGeometry>
        </mxCell>
        <mxCell id="0qtqY2iSxDAGD9Ec6BDt-7" style="edgeStyle=orthogonalEdgeStyle;rounded=0;orthogonalLoop=1;jettySize=auto;html=1;" edge="1" parent="1" source="0qtqY2iSxDAGD9Ec6BDt-2" target="0qtqY2iSxDAGD9Ec6BDt-3">
          <mxGeometry relative="1" as="geometry" />
        </mxCell>
        <mxCell id="0qtqY2iSxDAGD9Ec6BDt-8" value="&lt;span style=&quot;font-family: berkeleyMono, ui-monospace, SFMono-Regular, monospace; font-size: 14px; letter-spacing: 0.16px; text-align: right; white-space: pre-wrap;&quot;&gt;1.1.3: GetCheckedOutMedia(id = id)&lt;/span&gt;" style="edgeLabel;html=1;align=center;verticalAlign=middle;resizable=0;points=[];labelBackgroundColor=none;fontColor=default;" vertex="1" connectable="0" parent="0qtqY2iSxDAGD9Ec6BDt-7">
          <mxGeometry x="0.2536" y="-2" relative="1" as="geometry">
            <mxPoint x="-29" y="28" as="offset" />
          </mxGeometry>
        </mxCell>
        <mxCell id="0qtqY2iSxDAGD9Ec6BDt-13" style="edgeStyle=orthogonalEdgeStyle;rounded=0;orthogonalLoop=1;jettySize=auto;html=1;" edge="1" parent="1" source="0qtqY2iSxDAGD9Ec6BDt-2" target="0qtqY2iSxDAGD9Ec6BDt-1">
          <mxGeometry relative="1" as="geometry">
            <Array as="points">
              <mxPoint x="380" y="320" />
              <mxPoint x="380" y="320" />
            </Array>
          </mxGeometry>
        </mxCell>
        <mxCell id="0qtqY2iSxDAGD9Ec6BDt-14" value="&lt;span style=&quot;font-family: berkeleyMono, ui-monospace, SFMono-Regular, monospace; font-size: 14px; letter-spacing: 0.16px; text-align: right; white-space: pre-wrap;&quot;&gt;1.2: DisplayCart()&lt;/span&gt;" style="edgeLabel;html=1;align=center;verticalAlign=middle;resizable=0;points=[];labelBackgroundColor=none;fontColor=default;" vertex="1" connectable="0" parent="0qtqY2iSxDAGD9Ec6BDt-13">
          <mxGeometry x="-0.4268" y="1" relative="1" as="geometry">
            <mxPoint x="-31" y="19" as="offset" />
          </mxGeometry>
        </mxCell>
        <mxCell id="0qtqY2iSxDAGD9Ec6BDt-2" value="UI" style="rounded=1;whiteSpace=wrap;html=1;" vertex="1" parent="1">
          <mxGeometry x="460" y="270" width="120" height="60" as="geometry" />
        </mxCell>
        <mxCell id="0qtqY2iSxDAGD9Ec6BDt-9" style="edgeStyle=orthogonalEdgeStyle;rounded=0;orthogonalLoop=1;jettySize=auto;html=1;" edge="1" parent="1" source="0qtqY2iSxDAGD9Ec6BDt-3" target="0qtqY2iSxDAGD9Ec6BDt-2">
          <mxGeometry relative="1" as="geometry">
            <Array as="points">
              <mxPoint x="910" y="380" />
              <mxPoint x="520" y="380" />
            </Array>
          </mxGeometry>
        </mxCell>
        <mxCell id="0qtqY2iSxDAGD9Ec6BDt-10" value="&lt;span style=&quot;font-family: berkeleyMono, ui-monospace, SFMono-Regular, monospace; font-size: 14px; letter-spacing: 0.16px; text-align: right; white-space: pre-wrap;&quot;&gt;1.1.5: amount&lt;/span&gt;" style="edgeLabel;html=1;align=center;verticalAlign=middle;resizable=0;points=[];labelBackgroundColor=none;fontColor=default;" vertex="1" connectable="0" parent="0qtqY2iSxDAGD9Ec6BDt-9">
          <mxGeometry x="-0.0935" y="1" relative="1" as="geometry">
            <mxPoint as="offset" />
          </mxGeometry>
        </mxCell>
        <mxCell id="0qtqY2iSxDAGD9Ec6BDt-3" value="CartService" style="rounded=1;whiteSpace=wrap;html=1;" vertex="1" parent="1">
          <mxGeometry x="850" y="270" width="120" height="60" as="geometry" />
        </mxCell>
        <mxCell id="0qtqY2iSxDAGD9Ec6BDt-19" style="edgeStyle=orthogonalEdgeStyle;rounded=0;orthogonalLoop=1;jettySize=auto;html=1;" edge="1" parent="1" source="0qtqY2iSxDAGD9Ec6BDt-16" target="0qtqY2iSxDAGD9Ec6BDt-17">
          <mxGeometry relative="1" as="geometry" />
        </mxCell>
        <mxCell id="0qtqY2iSxDAGD9Ec6BDt-20" value="&lt;span style=&quot;font-family: berkeleyMono, ui-monospace, SFMono-Regular, monospace; font-size: 14px; letter-spacing: 0.16px; text-align: right; white-space: pre-wrap;&quot;&gt;2: Update/DeleteProduct()&lt;/span&gt;" style="edgeLabel;html=1;align=center;verticalAlign=middle;resizable=0;points=[];labelBackgroundColor=none;fontColor=default;" vertex="1" connectable="0" parent="0qtqY2iSxDAGD9Ec6BDt-19">
          <mxGeometry x="0.0901" y="3" relative="1" as="geometry">
            <mxPoint x="-2" y="33" as="offset" />
          </mxGeometry>
        </mxCell>
        <mxCell id="0qtqY2iSxDAGD9Ec6BDt-16" value="User" style="shape=umlActor;verticalLabelPosition=bottom;verticalAlign=top;html=1;outlineConnect=0;" vertex="1" parent="1">
          <mxGeometry x="270" y="520" width="30" height="60" as="geometry" />
        </mxCell>
        <mxCell id="0qtqY2iSxDAGD9Ec6BDt-21" style="edgeStyle=orthogonalEdgeStyle;rounded=0;orthogonalLoop=1;jettySize=auto;html=1;" edge="1" parent="1" source="0qtqY2iSxDAGD9Ec6BDt-17" target="0qtqY2iSxDAGD9Ec6BDt-18">
          <mxGeometry relative="1" as="geometry" />
        </mxCell>
        <mxCell id="0qtqY2iSxDAGD9Ec6BDt-22" value="2.1: UpdateCart()" style="edgeLabel;html=1;align=center;verticalAlign=middle;resizable=0;points=[];" vertex="1" connectable="0" parent="0qtqY2iSxDAGD9Ec6BDt-21">
          <mxGeometry x="0.1078" relative="1" as="geometry">
            <mxPoint as="offset" />
          </mxGeometry>
        </mxCell>
        <mxCell id="0qtqY2iSxDAGD9Ec6BDt-24" style="edgeStyle=orthogonalEdgeStyle;rounded=0;orthogonalLoop=1;jettySize=auto;html=1;" edge="1" parent="1" source="0qtqY2iSxDAGD9Ec6BDt-17" target="0qtqY2iSxDAGD9Ec6BDt-17">
          <mxGeometry relative="1" as="geometry">
            <mxPoint x="490" y="430.0000000000001" as="targetPoint" />
            <Array as="points">
              <mxPoint x="570" y="460" />
              <mxPoint x="490" y="460" />
            </Array>
          </mxGeometry>
        </mxCell>
        <mxCell id="0qtqY2iSxDAGD9Ec6BDt-25" value="2.1.1: ProcessLogic()" style="edgeLabel;html=1;align=center;verticalAlign=middle;resizable=0;points=[];" vertex="1" connectable="0" parent="0qtqY2iSxDAGD9Ec6BDt-24">
          <mxGeometry x="-0.1918" y="1" relative="1" as="geometry">
            <mxPoint as="offset" />
          </mxGeometry>
        </mxCell>
        <mxCell id="0qtqY2iSxDAGD9Ec6BDt-17" value="UI" style="rounded=1;whiteSpace=wrap;html=1;" vertex="1" parent="1">
          <mxGeometry x="470" y="520" width="120" height="60" as="geometry" />
        </mxCell>
        <mxCell id="0qtqY2iSxDAGD9Ec6BDt-26" style="edgeStyle=orthogonalEdgeStyle;rounded=0;orthogonalLoop=1;jettySize=auto;html=1;entryX=0.5;entryY=1;entryDx=0;entryDy=0;" edge="1" parent="1" source="0qtqY2iSxDAGD9Ec6BDt-18" target="0qtqY2iSxDAGD9Ec6BDt-17">
          <mxGeometry relative="1" as="geometry">
            <Array as="points">
              <mxPoint x="920" y="600" />
              <mxPoint x="530" y="600" />
            </Array>
          </mxGeometry>
        </mxCell>
        <mxCell id="0qtqY2iSxDAGD9Ec6BDt-27" value="2.1.2: ReturnUpdatedCart" style="edgeLabel;html=1;align=center;verticalAlign=middle;resizable=0;points=[];" vertex="1" connectable="0" parent="0qtqY2iSxDAGD9Ec6BDt-26">
          <mxGeometry x="-0.0835" relative="1" as="geometry">
            <mxPoint as="offset" />
          </mxGeometry>
        </mxCell>
        <mxCell id="0qtqY2iSxDAGD9Ec6BDt-18" value="CartService" style="rounded=1;whiteSpace=wrap;html=1;" vertex="1" parent="1">
          <mxGeometry x="860" y="520" width="120" height="60" as="geometry" />
        </mxCell>
      </root>
    </mxGraphModel>
  </diagram>
  <diagram id="zLcVFblYEs1ZDtGf9QEt" name="Thanh toán đơn hàng">
    <mxGraphModel dx="2575" dy="1373" grid="1" gridSize="10" guides="1" tooltips="1" connect="1" arrows="1" fold="1" page="1" pageScale="1" pageWidth="827" pageHeight="1169" math="0" shadow="0">
      <root>
        <mxCell id="0" />
        <mxCell id="1" parent="0" />
        <mxCell id="ptsjphMUprpmJGLNmjWw-60" value="Luồng thất bại" style="rounded=0;whiteSpace=wrap;html=1;verticalAlign=top;" vertex="1" parent="1">
          <mxGeometry x="190" y="840" width="1020" height="510" as="geometry" />
        </mxCell>
        <mxCell id="ptsjphMUprpmJGLNmjWw-34" value="LUỒNG THÀNH CÔNG" style="rounded=0;whiteSpace=wrap;html=1;verticalAlign=top;" vertex="1" parent="1">
          <mxGeometry x="160" y="260" width="960" height="500" as="geometry" />
        </mxCell>
        <mxCell id="ptsjphMUprpmJGLNmjWw-4" style="edgeStyle=orthogonalEdgeStyle;rounded=0;orthogonalLoop=1;jettySize=auto;html=1;" edge="1" parent="1" source="ptsjphMUprpmJGLNmjWw-1" target="ptsjphMUprpmJGLNmjWw-2">
          <mxGeometry relative="1" as="geometry" />
        </mxCell>
        <mxCell id="ptsjphMUprpmJGLNmjWw-5" value="ClickCheckout()" style="edgeLabel;html=1;align=center;verticalAlign=middle;resizable=0;points=[];" vertex="1" connectable="0" parent="ptsjphMUprpmJGLNmjWw-4">
          <mxGeometry x="0.0941" y="-2" relative="1" as="geometry">
            <mxPoint as="offset" />
          </mxGeometry>
        </mxCell>
        <mxCell id="ptsjphMUprpmJGLNmjWw-1" value="User" style="shape=umlActor;verticalLabelPosition=bottom;verticalAlign=top;html=1;outlineConnect=0;" vertex="1" parent="1">
          <mxGeometry x="280" y="360" width="30" height="60" as="geometry" />
        </mxCell>
        <mxCell id="ptsjphMUprpmJGLNmjWw-6" style="edgeStyle=orthogonalEdgeStyle;rounded=0;orthogonalLoop=1;jettySize=auto;html=1;" edge="1" parent="1" source="ptsjphMUprpmJGLNmjWw-2" target="ptsjphMUprpmJGLNmjWw-3">
          <mxGeometry relative="1" as="geometry">
            <Array as="points">
              <mxPoint x="810" y="410" />
              <mxPoint x="810" y="410" />
            </Array>
          </mxGeometry>
        </mxCell>
        <mxCell id="ptsjphMUprpmJGLNmjWw-7" value="1.2CheckCartEmpty()" style="edgeLabel;html=1;align=center;verticalAlign=middle;resizable=0;points=[];" vertex="1" connectable="0" parent="ptsjphMUprpmJGLNmjWw-6">
          <mxGeometry x="0.3852" y="-2" relative="1" as="geometry">
            <mxPoint x="-37" y="8" as="offset" />
          </mxGeometry>
        </mxCell>
        <mxCell id="ptsjphMUprpmJGLNmjWw-29" style="edgeStyle=orthogonalEdgeStyle;rounded=0;orthogonalLoop=1;jettySize=auto;html=1;" edge="1" parent="1" source="ptsjphMUprpmJGLNmjWw-2" target="ptsjphMUprpmJGLNmjWw-1">
          <mxGeometry relative="1" as="geometry">
            <Array as="points">
              <mxPoint x="400" y="370" />
              <mxPoint x="400" y="370" />
            </Array>
          </mxGeometry>
        </mxCell>
        <mxCell id="ptsjphMUprpmJGLNmjWw-30" value="1.3.4.1: ShowSuccessMsg()" style="edgeLabel;html=1;align=center;verticalAlign=middle;resizable=0;points=[];" vertex="1" connectable="0" parent="ptsjphMUprpmJGLNmjWw-29">
          <mxGeometry x="-0.0196" y="-3" relative="1" as="geometry">
            <mxPoint as="offset" />
          </mxGeometry>
        </mxCell>
        <mxCell id="ptsjphMUprpmJGLNmjWw-2" value="UI" style="rounded=1;whiteSpace=wrap;html=1;" vertex="1" parent="1">
          <mxGeometry x="480" y="360" width="120" height="60" as="geometry" />
        </mxCell>
        <mxCell id="ptsjphMUprpmJGLNmjWw-9" value="1.2&lt;br&gt;RequestPayment()&lt;div&gt;&lt;br/&gt;&lt;/div&gt;" style="edgeStyle=orthogonalEdgeStyle;rounded=0;orthogonalLoop=1;jettySize=auto;html=1;" edge="1" parent="1" source="ptsjphMUprpmJGLNmjWw-3" target="ptsjphMUprpmJGLNmjWw-8">
          <mxGeometry relative="1" as="geometry" />
        </mxCell>
        <mxCell id="ptsjphMUprpmJGLNmjWw-10" style="edgeStyle=orthogonalEdgeStyle;rounded=0;orthogonalLoop=1;jettySize=auto;html=1;" edge="1" parent="1" source="ptsjphMUprpmJGLNmjWw-3" target="ptsjphMUprpmJGLNmjWw-2">
          <mxGeometry relative="1" as="geometry">
            <Array as="points">
              <mxPoint x="680" y="370" />
              <mxPoint x="680" y="370" />
            </Array>
          </mxGeometry>
        </mxCell>
        <mxCell id="ptsjphMUprpmJGLNmjWw-11" value="1.1.1CartStatus" style="edgeLabel;html=1;align=center;verticalAlign=middle;resizable=0;points=[];" vertex="1" connectable="0" parent="ptsjphMUprpmJGLNmjWw-10">
          <mxGeometry x="-0.2296" y="-1" relative="1" as="geometry">
            <mxPoint y="-9" as="offset" />
          </mxGeometry>
        </mxCell>
        <mxCell id="ptsjphMUprpmJGLNmjWw-3" value="CartService" style="rounded=1;whiteSpace=wrap;html=1;" vertex="1" parent="1">
          <mxGeometry x="870" y="360" width="120" height="60" as="geometry" />
        </mxCell>
        <mxCell id="ptsjphMUprpmJGLNmjWw-13" style="edgeStyle=orthogonalEdgeStyle;rounded=0;orthogonalLoop=1;jettySize=auto;html=1;" edge="1" parent="1" source="ptsjphMUprpmJGLNmjWw-8" target="ptsjphMUprpmJGLNmjWw-12">
          <mxGeometry relative="1" as="geometry" />
        </mxCell>
        <mxCell id="ptsjphMUprpmJGLNmjWw-14" value="InventoryStatus" style="edgeLabel;html=1;align=center;verticalAlign=middle;resizable=0;points=[];" vertex="1" connectable="0" parent="ptsjphMUprpmJGLNmjWw-13">
          <mxGeometry x="-0.4462" y="3" relative="1" as="geometry">
            <mxPoint x="-39" y="7" as="offset" />
          </mxGeometry>
        </mxCell>
        <mxCell id="ptsjphMUprpmJGLNmjWw-16" style="edgeStyle=orthogonalEdgeStyle;rounded=0;orthogonalLoop=1;jettySize=auto;html=1;" edge="1" parent="1" source="ptsjphMUprpmJGLNmjWw-8" target="ptsjphMUprpmJGLNmjWw-15">
          <mxGeometry relative="1" as="geometry">
            <Array as="points">
              <mxPoint x="900" y="580" />
              <mxPoint x="900" y="580" />
            </Array>
          </mxGeometry>
        </mxCell>
        <mxCell id="ptsjphMUprpmJGLNmjWw-17" value="1.3: ProcessTransaction()" style="edgeLabel;html=1;align=center;verticalAlign=middle;resizable=0;points=[];" vertex="1" connectable="0" parent="ptsjphMUprpmJGLNmjWw-16">
          <mxGeometry x="-0.1333" relative="1" as="geometry">
            <mxPoint x="-103" y="-1" as="offset" />
          </mxGeometry>
        </mxCell>
        <mxCell id="ptsjphMUprpmJGLNmjWw-20" style="edgeStyle=orthogonalEdgeStyle;rounded=0;orthogonalLoop=1;jettySize=auto;html=1;" edge="1" parent="1" source="ptsjphMUprpmJGLNmjWw-8" target="ptsjphMUprpmJGLNmjWw-12">
          <mxGeometry relative="1" as="geometry">
            <Array as="points">
              <mxPoint x="770" y="510" />
              <mxPoint x="770" y="510" />
            </Array>
          </mxGeometry>
        </mxCell>
        <mxCell id="ptsjphMUprpmJGLNmjWw-21" value="1.3.2: UpdateInventory()" style="edgeLabel;html=1;align=center;verticalAlign=middle;resizable=0;points=[];" vertex="1" connectable="0" parent="ptsjphMUprpmJGLNmjWw-20">
          <mxGeometry x="-0.0079" y="-1" relative="1" as="geometry">
            <mxPoint as="offset" />
          </mxGeometry>
        </mxCell>
        <mxCell id="ptsjphMUprpmJGLNmjWw-23" style="edgeStyle=orthogonalEdgeStyle;rounded=0;orthogonalLoop=1;jettySize=auto;html=1;" edge="1" parent="1" source="ptsjphMUprpmJGLNmjWw-8" target="ptsjphMUprpmJGLNmjWw-22">
          <mxGeometry relative="1" as="geometry">
            <Array as="points">
              <mxPoint x="890" y="480" />
            </Array>
          </mxGeometry>
        </mxCell>
        <mxCell id="ptsjphMUprpmJGLNmjWw-24" value="1.3.3: SendConfirmationEmail()" style="edgeLabel;html=1;align=center;verticalAlign=middle;resizable=0;points=[];" vertex="1" connectable="0" parent="ptsjphMUprpmJGLNmjWw-23">
          <mxGeometry x="0.2273" y="1" relative="1" as="geometry">
            <mxPoint as="offset" />
          </mxGeometry>
        </mxCell>
        <mxCell id="ptsjphMUprpmJGLNmjWw-27" style="edgeStyle=orthogonalEdgeStyle;rounded=0;orthogonalLoop=1;jettySize=auto;html=1;" edge="1" parent="1" source="ptsjphMUprpmJGLNmjWw-8" target="ptsjphMUprpmJGLNmjWw-2">
          <mxGeometry relative="1" as="geometry">
            <Array as="points">
              <mxPoint x="930" y="450" />
              <mxPoint x="540" y="450" />
            </Array>
          </mxGeometry>
        </mxCell>
        <mxCell id="ptsjphMUprpmJGLNmjWw-28" value="1.3.4: PaymentSuccess" style="edgeLabel;html=1;align=center;verticalAlign=middle;resizable=0;points=[];" vertex="1" connectable="0" parent="ptsjphMUprpmJGLNmjWw-27">
          <mxGeometry x="-0.0355" y="-2" relative="1" as="geometry">
            <mxPoint as="offset" />
          </mxGeometry>
        </mxCell>
        <mxCell id="ptsjphMUprpmJGLNmjWw-8" value="Payment" style="rounded=1;whiteSpace=wrap;html=1;" vertex="1" parent="1">
          <mxGeometry x="870" y="500" width="120" height="60" as="geometry" />
        </mxCell>
        <mxCell id="ptsjphMUprpmJGLNmjWw-12" value="Inventory&lt;div&gt;&lt;br&gt;&lt;/div&gt;" style="rounded=1;whiteSpace=wrap;html=1;" vertex="1" parent="1">
          <mxGeometry x="540" y="500" width="120" height="60" as="geometry" />
        </mxCell>
        <mxCell id="ptsjphMUprpmJGLNmjWw-18" style="edgeStyle=orthogonalEdgeStyle;rounded=0;orthogonalLoop=1;jettySize=auto;html=1;" edge="1" parent="1" source="ptsjphMUprpmJGLNmjWw-15" target="ptsjphMUprpmJGLNmjWw-8">
          <mxGeometry relative="1" as="geometry" />
        </mxCell>
        <mxCell id="ptsjphMUprpmJGLNmjWw-19" value="1.3.1: TransactionResult (success)" style="edgeLabel;html=1;align=center;verticalAlign=middle;resizable=0;points=[];" vertex="1" connectable="0" parent="ptsjphMUprpmJGLNmjWw-18">
          <mxGeometry x="0.0778" relative="1" as="geometry">
            <mxPoint x="90" y="-2" as="offset" />
          </mxGeometry>
        </mxCell>
        <mxCell id="ptsjphMUprpmJGLNmjWw-15" value="&lt;div&gt;getway&lt;/div&gt;" style="rounded=1;whiteSpace=wrap;html=1;" vertex="1" parent="1">
          <mxGeometry x="870" y="620" width="120" height="60" as="geometry" />
        </mxCell>
        <mxCell id="ptsjphMUprpmJGLNmjWw-25" style="edgeStyle=orthogonalEdgeStyle;rounded=0;orthogonalLoop=1;jettySize=auto;html=1;" edge="1" parent="1" source="ptsjphMUprpmJGLNmjWw-22" target="ptsjphMUprpmJGLNmjWw-1">
          <mxGeometry relative="1" as="geometry" />
        </mxCell>
        <mxCell id="ptsjphMUprpmJGLNmjWw-26" value="1.3.3.1: EmailConfirmation" style="edgeLabel;html=1;align=center;verticalAlign=middle;resizable=0;points=[];" vertex="1" connectable="0" parent="ptsjphMUprpmJGLNmjWw-25">
          <mxGeometry x="0.2145" relative="1" as="geometry">
            <mxPoint as="offset" />
          </mxGeometry>
        </mxCell>
        <mxCell id="ptsjphMUprpmJGLNmjWw-22" value="Email" style="rounded=1;whiteSpace=wrap;html=1;" vertex="1" parent="1">
          <mxGeometry x="350" y="450" width="120" height="60" as="geometry" />
        </mxCell>
        <mxCell id="ptsjphMUprpmJGLNmjWw-37" style="edgeStyle=orthogonalEdgeStyle;rounded=0;orthogonalLoop=1;jettySize=auto;html=1;" edge="1" parent="1" source="ptsjphMUprpmJGLNmjWw-31" target="ptsjphMUprpmJGLNmjWw-32">
          <mxGeometry relative="1" as="geometry" />
        </mxCell>
        <mxCell id="ptsjphMUprpmJGLNmjWw-38" value="1: ClickCheckout()" style="edgeLabel;html=1;align=center;verticalAlign=middle;resizable=0;points=[];" vertex="1" connectable="0" parent="ptsjphMUprpmJGLNmjWw-37">
          <mxGeometry x="0.2315" y="1" relative="1" as="geometry">
            <mxPoint as="offset" />
          </mxGeometry>
        </mxCell>
        <mxCell id="ptsjphMUprpmJGLNmjWw-31" value="User" style="shape=umlActor;verticalLabelPosition=bottom;verticalAlign=top;html=1;outlineConnect=0;" vertex="1" parent="1">
          <mxGeometry x="280" y="890" width="30" height="60" as="geometry" />
        </mxCell>
        <mxCell id="ptsjphMUprpmJGLNmjWw-39" style="edgeStyle=orthogonalEdgeStyle;rounded=0;orthogonalLoop=1;jettySize=auto;html=1;" edge="1" parent="1" source="ptsjphMUprpmJGLNmjWw-32" target="ptsjphMUprpmJGLNmjWw-33">
          <mxGeometry relative="1" as="geometry">
            <Array as="points">
              <mxPoint x="660" y="940" />
              <mxPoint x="660" y="940" />
            </Array>
          </mxGeometry>
        </mxCell>
        <mxCell id="ptsjphMUprpmJGLNmjWw-40" value="1.1: CheckCartEmpty()" style="edgeLabel;html=1;align=center;verticalAlign=middle;resizable=0;points=[];" vertex="1" connectable="0" parent="ptsjphMUprpmJGLNmjWw-39">
          <mxGeometry x="0.2531" relative="1" as="geometry">
            <mxPoint as="offset" />
          </mxGeometry>
        </mxCell>
        <mxCell id="ptsjphMUprpmJGLNmjWw-44" style="edgeStyle=orthogonalEdgeStyle;rounded=0;orthogonalLoop=1;jettySize=auto;html=1;" edge="1" parent="1" source="ptsjphMUprpmJGLNmjWw-32" target="ptsjphMUprpmJGLNmjWw-43">
          <mxGeometry relative="1" as="geometry">
            <Array as="points">
              <mxPoint x="530" y="1050" />
            </Array>
          </mxGeometry>
        </mxCell>
        <mxCell id="ptsjphMUprpmJGLNmjWw-45" value="1.2: RequestPayment()" style="edgeLabel;html=1;align=center;verticalAlign=middle;resizable=0;points=[];" vertex="1" connectable="0" parent="ptsjphMUprpmJGLNmjWw-44">
          <mxGeometry x="-0.6549" y="2" relative="1" as="geometry">
            <mxPoint as="offset" />
          </mxGeometry>
        </mxCell>
        <mxCell id="ptsjphMUprpmJGLNmjWw-58" style="edgeStyle=orthogonalEdgeStyle;rounded=0;orthogonalLoop=1;jettySize=auto;html=1;" edge="1" parent="1" source="ptsjphMUprpmJGLNmjWw-32" target="ptsjphMUprpmJGLNmjWw-31">
          <mxGeometry relative="1" as="geometry">
            <Array as="points">
              <mxPoint x="295" y="960" />
            </Array>
          </mxGeometry>
        </mxCell>
        <mxCell id="ptsjphMUprpmJGLNmjWw-59" value="&amp;nbsp;1.3.5.1: ShowFailMsg()" style="edgeLabel;html=1;align=center;verticalAlign=middle;resizable=0;points=[];" vertex="1" connectable="0" parent="ptsjphMUprpmJGLNmjWw-58">
          <mxGeometry x="-0.2051" y="-2" relative="1" as="geometry">
            <mxPoint as="offset" />
          </mxGeometry>
        </mxCell>
        <mxCell id="ptsjphMUprpmJGLNmjWw-32" value="UI" style="rounded=1;whiteSpace=wrap;html=1;" vertex="1" parent="1">
          <mxGeometry x="480" y="900" width="120" height="60" as="geometry" />
        </mxCell>
        <mxCell id="ptsjphMUprpmJGLNmjWw-41" style="edgeStyle=orthogonalEdgeStyle;rounded=0;orthogonalLoop=1;jettySize=auto;html=1;" edge="1" parent="1" source="ptsjphMUprpmJGLNmjWw-33" target="ptsjphMUprpmJGLNmjWw-32">
          <mxGeometry relative="1" as="geometry">
            <Array as="points">
              <mxPoint x="920" y="900" />
            </Array>
          </mxGeometry>
        </mxCell>
        <mxCell id="ptsjphMUprpmJGLNmjWw-42" value="1.1.1: CartStatus" style="edgeLabel;html=1;align=center;verticalAlign=middle;resizable=0;points=[];" vertex="1" connectable="0" parent="ptsjphMUprpmJGLNmjWw-41">
          <mxGeometry x="-0.202" y="-1" relative="1" as="geometry">
            <mxPoint as="offset" />
          </mxGeometry>
        </mxCell>
        <mxCell id="ptsjphMUprpmJGLNmjWw-33" value="CartService" style="rounded=1;whiteSpace=wrap;html=1;" vertex="1" parent="1">
          <mxGeometry x="860" y="910" width="120" height="60" as="geometry" />
        </mxCell>
        <mxCell id="ptsjphMUprpmJGLNmjWw-47" value="" style="edgeStyle=orthogonalEdgeStyle;rounded=0;orthogonalLoop=1;jettySize=auto;html=1;" edge="1" parent="1" source="ptsjphMUprpmJGLNmjWw-43" target="ptsjphMUprpmJGLNmjWw-46">
          <mxGeometry relative="1" as="geometry" />
        </mxCell>
        <mxCell id="ptsjphMUprpmJGLNmjWw-48" value="1.2.1: CheckInventory()" style="edgeLabel;html=1;align=center;verticalAlign=middle;resizable=0;points=[];" vertex="1" connectable="0" parent="ptsjphMUprpmJGLNmjWw-47">
          <mxGeometry x="-0.0417" y="3" relative="1" as="geometry">
            <mxPoint as="offset" />
          </mxGeometry>
        </mxCell>
        <mxCell id="ptsjphMUprpmJGLNmjWw-52" style="edgeStyle=orthogonalEdgeStyle;rounded=0;orthogonalLoop=1;jettySize=auto;html=1;" edge="1" parent="1" source="ptsjphMUprpmJGLNmjWw-43" target="ptsjphMUprpmJGLNmjWw-51">
          <mxGeometry relative="1" as="geometry" />
        </mxCell>
        <mxCell id="ptsjphMUprpmJGLNmjWw-53" value="1.3: ProcessTransaction()" style="edgeLabel;html=1;align=center;verticalAlign=middle;resizable=0;points=[];" vertex="1" connectable="0" parent="ptsjphMUprpmJGLNmjWw-52">
          <mxGeometry x="-0.3667" y="-2" relative="1" as="geometry">
            <mxPoint x="-88" as="offset" />
          </mxGeometry>
        </mxCell>
        <mxCell id="ptsjphMUprpmJGLNmjWw-56" style="edgeStyle=orthogonalEdgeStyle;rounded=0;orthogonalLoop=1;jettySize=auto;html=1;" edge="1" parent="1" source="ptsjphMUprpmJGLNmjWw-43" target="ptsjphMUprpmJGLNmjWw-32">
          <mxGeometry relative="1" as="geometry">
            <Array as="points">
              <mxPoint x="580" y="1050" />
            </Array>
          </mxGeometry>
        </mxCell>
        <mxCell id="ptsjphMUprpmJGLNmjWw-57" value="1.3.5: PaymentFail" style="edgeLabel;html=1;align=center;verticalAlign=middle;resizable=0;points=[];" vertex="1" connectable="0" parent="ptsjphMUprpmJGLNmjWw-56">
          <mxGeometry x="0.525" y="-4" relative="1" as="geometry">
            <mxPoint y="22" as="offset" />
          </mxGeometry>
        </mxCell>
        <mxCell id="ptsjphMUprpmJGLNmjWw-43" value="Payment" style="rounded=1;whiteSpace=wrap;html=1;" vertex="1" parent="1">
          <mxGeometry x="610" y="1020" width="120" height="60" as="geometry" />
        </mxCell>
        <mxCell id="ptsjphMUprpmJGLNmjWw-49" style="edgeStyle=orthogonalEdgeStyle;rounded=0;orthogonalLoop=1;jettySize=auto;html=1;" edge="1" parent="1" source="ptsjphMUprpmJGLNmjWw-46" target="ptsjphMUprpmJGLNmjWw-43">
          <mxGeometry relative="1" as="geometry">
            <Array as="points">
              <mxPoint x="820" y="1070" />
              <mxPoint x="820" y="1070" />
            </Array>
          </mxGeometry>
        </mxCell>
        <mxCell id="ptsjphMUprpmJGLNmjWw-50" value="&amp;nbsp;1.2.1.1: InventoryStatus" style="edgeLabel;html=1;align=center;verticalAlign=middle;resizable=0;points=[];" vertex="1" connectable="0" parent="ptsjphMUprpmJGLNmjWw-49">
          <mxGeometry x="-0.1759" y="-1" relative="1" as="geometry">
            <mxPoint as="offset" />
          </mxGeometry>
        </mxCell>
        <mxCell id="ptsjphMUprpmJGLNmjWw-46" value="inventory" style="rounded=1;whiteSpace=wrap;html=1;" vertex="1" parent="1">
          <mxGeometry x="910" y="1020" width="120" height="60" as="geometry" />
        </mxCell>
        <mxCell id="ptsjphMUprpmJGLNmjWw-54" style="edgeStyle=orthogonalEdgeStyle;rounded=0;orthogonalLoop=1;jettySize=auto;html=1;" edge="1" parent="1" source="ptsjphMUprpmJGLNmjWw-51" target="ptsjphMUprpmJGLNmjWw-43">
          <mxGeometry relative="1" as="geometry">
            <Array as="points">
              <mxPoint x="700" y="1150" />
              <mxPoint x="700" y="1150" />
            </Array>
          </mxGeometry>
        </mxCell>
        <mxCell id="ptsjphMUprpmJGLNmjWw-55" value="1.3.1: TransactionResult (fail)" style="edgeLabel;html=1;align=center;verticalAlign=middle;resizable=0;points=[];" vertex="1" connectable="0" parent="ptsjphMUprpmJGLNmjWw-54">
          <mxGeometry x="0.3429" y="-1" relative="1" as="geometry">
            <mxPoint x="69" y="34" as="offset" />
          </mxGeometry>
        </mxCell>
        <mxCell id="ptsjphMUprpmJGLNmjWw-51" value="Getaway" style="rounded=1;whiteSpace=wrap;html=1;" vertex="1" parent="1">
          <mxGeometry x="610" y="1220" width="120" height="60" as="geometry" />
        </mxCell>
      </root>
    </mxGraphModel>
  </diagram>
  <diagram id="TpcmN19uaNtQhbSKYIwo" name="Đánh giá Sản phẩm">
    <mxGraphModel grid="1" page="1" gridSize="10" guides="1" tooltips="1" connect="1" arrows="1" fold="1" pageScale="1" pageWidth="827" pageHeight="1169" math="0" shadow="0">
      <root>
        <mxCell id="0" />
        <mxCell id="1" parent="0" />
        <mxCell id="rZ8L8PdtJ0JKC0gCQyk1-4" style="edgeStyle=orthogonalEdgeStyle;rounded=0;orthogonalLoop=1;jettySize=auto;html=1;" edge="1" parent="1" source="rZ8L8PdtJ0JKC0gCQyk1-1" target="rZ8L8PdtJ0JKC0gCQyk1-2">
          <mxGeometry relative="1" as="geometry" />
        </mxCell>
        <mxCell id="rZ8L8PdtJ0JKC0gCQyk1-5" value="1: OpenRatingPage()" style="edgeLabel;html=1;align=center;verticalAlign=middle;resizable=0;points=[];" vertex="1" connectable="0" parent="rZ8L8PdtJ0JKC0gCQyk1-4">
          <mxGeometry x="0.3158" y="-1" relative="1" as="geometry">
            <mxPoint x="-25" as="offset" />
          </mxGeometry>
        </mxCell>
        <mxCell id="rZ8L8PdtJ0JKC0gCQyk1-8" style="edgeStyle=orthogonalEdgeStyle;rounded=0;orthogonalLoop=1;jettySize=auto;html=1;" edge="1" parent="1" source="rZ8L8PdtJ0JKC0gCQyk1-1" target="rZ8L8PdtJ0JKC0gCQyk1-2">
          <mxGeometry relative="1" as="geometry">
            <Array as="points">
              <mxPoint x="350" y="330" />
              <mxPoint x="350" y="330" />
            </Array>
          </mxGeometry>
        </mxCell>
        <mxCell id="rZ8L8PdtJ0JKC0gCQyk1-9" value="1.2: SubmitRating()" style="edgeLabel;html=1;align=center;verticalAlign=middle;resizable=0;points=[];" vertex="1" connectable="0" parent="rZ8L8PdtJ0JKC0gCQyk1-8">
          <mxGeometry x="-0.0316" y="3" relative="1" as="geometry">
            <mxPoint as="offset" />
          </mxGeometry>
        </mxCell>
        <mxCell id="rZ8L8PdtJ0JKC0gCQyk1-1" value="Actor" style="shape=umlActor;verticalLabelPosition=bottom;verticalAlign=top;html=1;outlineConnect=0;" vertex="1" parent="1">
          <mxGeometry x="220" y="270" width="30" height="60" as="geometry" />
        </mxCell>
        <mxCell id="rZ8L8PdtJ0JKC0gCQyk1-6" style="edgeStyle=orthogonalEdgeStyle;rounded=0;orthogonalLoop=1;jettySize=auto;html=1;" edge="1" parent="1" source="rZ8L8PdtJ0JKC0gCQyk1-2" target="rZ8L8PdtJ0JKC0gCQyk1-2">
          <mxGeometry relative="1" as="geometry">
            <mxPoint x="450" y="110" as="targetPoint" />
            <Array as="points">
              <mxPoint x="530" y="191" />
              <mxPoint x="450" y="191" />
            </Array>
          </mxGeometry>
        </mxCell>
        <mxCell id="rZ8L8PdtJ0JKC0gCQyk1-7" value="1.1: LoadRatingForm()" style="edgeLabel;html=1;align=center;verticalAlign=middle;resizable=0;points=[];" vertex="1" connectable="0" parent="rZ8L8PdtJ0JKC0gCQyk1-6">
          <mxGeometry x="-0.1092" y="-4" relative="1" as="geometry">
            <mxPoint as="offset" />
          </mxGeometry>
        </mxCell>
        <mxCell id="rZ8L8PdtJ0JKC0gCQyk1-10" style="edgeStyle=orthogonalEdgeStyle;rounded=0;orthogonalLoop=1;jettySize=auto;html=1;" edge="1" parent="1" source="rZ8L8PdtJ0JKC0gCQyk1-2" target="rZ8L8PdtJ0JKC0gCQyk1-3">
          <mxGeometry relative="1" as="geometry" />
        </mxCell>
        <mxCell id="rZ8L8PdtJ0JKC0gCQyk1-11" value="&lt;span style=&quot;font-family: berkeleyMono, ui-monospace, SFMono-Regular, monospace; font-size: 14px; letter-spacing: 0.16px; text-align: right; white-space: pre-wrap;&quot;&gt;1.2.1: AddOrUpdateRating()&lt;/span&gt;" style="edgeLabel;html=1;align=center;verticalAlign=middle;resizable=0;points=[];labelBackgroundColor=none;fontColor=default;" vertex="1" connectable="0" parent="rZ8L8PdtJ0JKC0gCQyk1-10">
          <mxGeometry x="0.2133" y="1" relative="1" as="geometry">
            <mxPoint x="-11" y="31" as="offset" />
          </mxGeometry>
        </mxCell>
        <mxCell id="rZ8L8PdtJ0JKC0gCQyk1-2" value="WEB" style="rounded=0;whiteSpace=wrap;html=1;" vertex="1" parent="1">
          <mxGeometry x="440" y="270" width="120" height="60" as="geometry" />
        </mxCell>
        <mxCell id="rZ8L8PdtJ0JKC0gCQyk1-12" style="edgeStyle=orthogonalEdgeStyle;rounded=0;orthogonalLoop=1;jettySize=auto;html=1;" edge="1" parent="1" source="rZ8L8PdtJ0JKC0gCQyk1-3" target="rZ8L8PdtJ0JKC0gCQyk1-3">
          <mxGeometry relative="1" as="geometry">
            <mxPoint x="730" y="180" as="targetPoint" />
            <Array as="points">
              <mxPoint x="800" y="226" />
              <mxPoint x="730" y="226" />
            </Array>
          </mxGeometry>
        </mxCell>
        <mxCell id="rZ8L8PdtJ0JKC0gCQyk1-13" value="&lt;span style=&quot;font-family: berkeleyMono, ui-monospace, SFMono-Regular, monospace; font-size: 14px; letter-spacing: 0.16px; text-align: right; white-space: pre-wrap;&quot;&gt;1.2.1.1: SaveRating()&lt;/span&gt;" style="edgeLabel;html=1;align=center;verticalAlign=middle;resizable=0;points=[];labelBackgroundColor=none;fontColor=default;" vertex="1" connectable="0" parent="rZ8L8PdtJ0JKC0gCQyk1-12">
          <mxGeometry x="-0.1519" y="-4" relative="1" as="geometry">
            <mxPoint as="offset" />
          </mxGeometry>
        </mxCell>
        <mxCell id="rZ8L8PdtJ0JKC0gCQyk1-14" style="edgeStyle=orthogonalEdgeStyle;rounded=0;orthogonalLoop=1;jettySize=auto;html=1;" edge="1" parent="1" source="rZ8L8PdtJ0JKC0gCQyk1-3" target="rZ8L8PdtJ0JKC0gCQyk1-2">
          <mxGeometry relative="1" as="geometry">
            <Array as="points">
              <mxPoint x="640" y="270" />
              <mxPoint x="640" y="270" />
            </Array>
          </mxGeometry>
        </mxCell>
        <mxCell id="rZ8L8PdtJ0JKC0gCQyk1-15" value="&lt;span style=&quot;font-family: berkeleyMono, ui-monospace, SFMono-Regular, monospace; font-size: 14px; letter-spacing: 0.16px; text-align: right; white-space: pre-wrap;&quot;&gt;1.2.2: RatingResult&lt;/span&gt;" style="edgeLabel;html=1;align=center;verticalAlign=middle;resizable=0;points=[];labelBackgroundColor=none;fontColor=default;" vertex="1" connectable="0" parent="rZ8L8PdtJ0JKC0gCQyk1-14">
          <mxGeometry x="0.1067" y="1" relative="1" as="geometry">
            <mxPoint as="offset" />
          </mxGeometry>
        </mxCell>
        <mxCell id="rZ8L8PdtJ0JKC0gCQyk1-3" value="RATING" style="rounded=0;whiteSpace=wrap;html=1;" vertex="1" parent="1">
          <mxGeometry x="710" y="270" width="120" height="60" as="geometry" />
        </mxCell>
        <mxCell id="rZ8L8PdtJ0JKC0gCQyk1-16" style="edgeStyle=orthogonalEdgeStyle;rounded=0;orthogonalLoop=1;jettySize=auto;html=1;entryX=0.75;entryY=0.1;entryDx=0;entryDy=0;entryPerimeter=0;" edge="1" parent="1" source="rZ8L8PdtJ0JKC0gCQyk1-2" target="rZ8L8PdtJ0JKC0gCQyk1-1">
          <mxGeometry relative="1" as="geometry">
            <Array as="points">
              <mxPoint x="400" y="276" />
              <mxPoint x="400" y="276" />
            </Array>
          </mxGeometry>
        </mxCell>
        <mxCell id="rZ8L8PdtJ0JKC0gCQyk1-17" value="&lt;span style=&quot;font-family: berkeleyMono, ui-monospace, SFMono-Regular, monospace; font-size: 14px; letter-spacing: 0.16px; text-align: right; white-space: pre-wrap;&quot;&gt; 1.2.2.1: ShowConfirmation()&lt;/span&gt;" style="edgeLabel;html=1;align=center;verticalAlign=middle;resizable=0;points=[];labelBackgroundColor=none;fontColor=default;" vertex="1" connectable="0" parent="rZ8L8PdtJ0JKC0gCQyk1-16">
          <mxGeometry x="-0.0278" y="-1" relative="1" as="geometry">
            <mxPoint as="offset" />
          </mxGeometry>
        </mxCell>
      </root>
    </mxGraphModel>
  </diagram>
</mxfile>
